# xmcd CD database file
#
# Track frame offsets:
#	150
#	24756
#	51665
#	80219
#	106163
#	121630
#	152150
#	164228
#	185919
#	199268
#	217288
#	237317
#	263875
#	277783
#	289655
#	320592
#
# Disc length: 4573 seconds
#
# Revision: 2
# Processed by: cddbd v1.5.2PL0 Copyright (c) Steve Scherf et al.
# Submitted via: CDex 1.70beta2
#
DISCID=f511db10
DTITLE=Jazz - A great Collection Of Jazz
DYEAR=2000
DGENRE=Jazz
TTITLE0=Dave Brobeck - Take Five
TTITLE1=Clare Fischer - Morning
TTITLE2=Grover Washington - Take Me There
TTITLE3=Bob James - Angela
TTITLE4=Oscar Peterson - C-Jam Blues
TTITLE5=Kenny G - Summertime
TTITLE6=Elmer Bernstein - The Man With The Golden Arm
TTITLE7=Toots Thielmans - Bluessette
TTITLE8=Antonio Carlos Jobim - Insensatez
TTITLE9=Chuck Mangione - Give it All You Got
TTITLE10=Shakatak - Night Birds
TTITLE11=?
TTITLE12=?
TTITLE13=Henry Mancini - Peter Gunn
TTITLE14=Dave Brubeck - Blue Rondo A La Turk
TTITLE15=?
EXTD=YEAR: 2000
EXTT0=
EXTT1=
EXTT2=
EXTT3=
EXTT4=
EXTT5=
EXTT6=
EXTT7=
EXTT8=
EXTT9=
EXTT10=
EXTT11=
EXTT12=
EXTT13=
EXTT14=
EXTT15=
PLAYORDER=
